PathFileType	4	(X/Y/Z)	C:\Users\Basilio\Documents\Thesis Gigler\squatting_fais\c3dfiles\077\SLS_back_pre1\markers_experimental.trc
DataRate	CameraRate	NumFrames	NumMarkers	Units	OrigDataRate	OrigDataStartFrame	OrigNumFrames
200.000000	200.000000	4	60	mm	200.000000	0	1588
Frame#	Time	FHD			RBHD			C7			T10			CLAV			LSHO			LUUPA			LMUPA			LDUPA			LLEP			LMEP			LRAD			LUL			LRFIN			RSHO			RUPA1			RMUPA			RDUPA			RLEP			RMEP			RRAD			RUL			RUFIN			LASI			RASI			USACR			LSACR			RSACR			LTHI1			LTHI2			LTHI3			LTHI4			LLFC			LMFC			LTIB1			LTIB2			LTIB3			LTIB4			LLMAL			LHEE			LMT1			LMT2			LMT5			RTHI			RTHI2			RTHI3			RTHI4			RLFC			RMFC			RTIB1			RTIB2			RTIB3			RTIB4			RLMAL			RMMAL			RHEE			RMT1			RMT2			RMT5			LBHD			
		X1	Y1	Z1	X2	Y2	Z2	X3	Y3	Z3	X4	Y4	Z4	X5	Y5	Z5	X6	Y6	Z6	X7	Y7	Z7	X8	Y8	Z8	X9	Y9	Z9	X10	Y10	Z10	X11	Y11	Z11	X12	Y12	Z12	X13	Y13	Z13	X14	Y14	Z14	X15	Y15	Z15	X16	Y16	Z16	X17	Y17	Z17	X18	Y18	Z18	X19	Y19	Z19	X20	Y20	Z20	X21	Y21	Z21	X22	Y22	Z22	X23	Y23	Z23	X24	Y24	Z24	X25	Y25	Z25	X26	Y26	Z26	X27	Y27	Z27	X28	Y28	Z28	X29	Y29	Z29	X30	Y30	Z30	X31	Y31	Z31	X32	Y32	Z32	X33	Y33	Z33	X34	Y34	Z34	X35	Y35	Z35	X36	Y36	Z36	X37	Y37	Z37	X38	Y38	Z38	X39	Y39	Z39	X40	Y40	Z40	X41	Y41	Z41	X42	Y42	Z42	X43	Y43	Z43	X44	Y44	Z44	X45	Y45	Z45	X46	Y46	Z46	X47	Y47	Z47	X48	Y48	Z48	X49	Y49	Z49	X50	Y50	Z50	X51	Y51	Z51	X52	Y52	Z52	X53	Y53	Z53	X54	Y54	Z54	X55	Y55	Z55	X56	Y56	Z56	X57	Y57	Z57	X58	Y58	Z58	X59	Y59	Z59	X60	Y60	Z60	

1	0	-9.426832199096681	1705.505249023438	-906.311950683594	-194.5643768310547	1733.0791015625	-840.7309570312502	-336.8822937011719	1645.424682617188	-918.772155761719	-435.5706787109376	1295.700439453125	-916.0791625976565	-206.6492614746094	1532.244873046875	-926.5732421875002	-284.3507690429688	1579.836547851563	-1117.321411132813	-379.3609619140626	1376.786743164063	-1208.236572265625	-342.6034851074219	1344.724975585938	-1208.922729492188	-393.0914611816407	1310.620971679688	-1214.555786132813	-396.9746093750001	1243.890380859375	-1220.65966796875	-422.0795288085939	1227.794189453125	-1147.42578125	-249.2326660156251	974.7419433593752	-1197.966186523438	-320.1706848144532	951.0712890625002	-1228.011962890625	-216.8200225830079	901.2677001953127	-1243.931640625	-249.0414733886719	1567.332275390625	-730.4083862304689	-337.9082946777344	1372.654541015625	-620.1795043945314	-302.4006347656251	1341.376586914063	-626.4102172851564	-348.4733581542969	1304.161499023438	-612.2727050781251	-350.8931579589844	1235.978393554688	-604.8267211914064	-384.5593566894532	1217.154296875	-677.8272094726564	-191.6391143798828	984.8030395507815	-641.5194091796876	-247.5947875976563	956.7041015625002	-595.8173828125001	-146.0932006835938	912.1547851562502	-603.0822143554689	-274.9673767089844	1060.537353515625	-1054.653076171875	-260.7035522460938	1095.899047851563	-767.3864746093751	-459.010223388672	1183.067749023438	-912.6323852539065	-469.1145935058595	1152.846923828125	-939.898376464844	-470.3566284179689	1153.123901367188	-884.1875610351565	-358.6451110839844	859.6331176757815	-1109.245483398438	-337.3474121093751	778.5356445312502	-1110.554321289063	-288.4068603515626	774.5775146484377	-1103.4365234375	-371.2293701171876	729.3571166992189	-1096.023559570313	-354.9331359863282	581.0397338867189	-1076.118530273438	-346.7677001953126	550.7277221679689	-945.2014770507815	-305.1191406250001	363.9176330566407	-1028.576171875	-336.9791564941407	321.8726806640626	-1102.945068359375	-304.1967163085938	320.1368408203126	-1069.977783203125	-299.8912963867188	239.4715881347657	-1046.150512695313	-349.3045654296876	117.3516693115235	-1094.126098632813	-399.5244140625001	83.27620697021486	-1044.83154296875	-189.9515228271485	55.99024581909181	-1027.754760742188	-183.3006286621094	58.07979202270509	-1070.110961914063	-316.5122070312501	127.1362380981446	-1011.796936035156	-387.483123779297	770.6582031250002	-720.7722167968751	-360.4477539062501	711.0227661132814	-718.2122802734376	-326.6472167968751	707.1179199218751	-721.0837402343751	-397.5484313964845	639.7598876953126	-734.1774291992189	-401.7695922851564	568.5599365234376	-735.7543945312501	-371.3718261718751	551.4561157226564	-864.5253906250002	-343.4772338867188	436.1399536132814	-750.5122070312501	-401.0144042968751	351.9842529296876	-718.1021728515626	-356.8293151855469	351.0612182617188	-736.6162719726564	-347.2158508300782	306.5747375488282	-775.0908203125002	-402.1170959472657	124.4852447509766	-735.2020874023439	-368.7515258789063	131.6590728759766	-822.4048461914065	-457.5041809082032	100.2051391601563	-794.9515380859377	-238.5671539306641	61.30250930786134	-771.5613403320315	-244.9472045898438	62.2081985473633	-733.9353027343751	-267.3459472656251	45.56848144531251	-686.7933349609376	nan	nan	nan	
2	0.005	-10.08237743377686	1706.372314453125	-906.5411376953127	-195.1631164550782	1733.514892578125	-840.688415527344	-337.3129272460938	1645.398803710938	-918.8782348632815	-435.351287841797	1295.585571289063	-916.1682128906252	-206.8173370361329	1532.54052734375	-926.629333496094	-284.6942138671876	1579.945434570313	-1117.43310546875	-379.2795715332032	1376.687744140625	-1208.309936523438	-342.5167541503907	1344.668212890625	-1208.984130859375	-392.8798828125001	1310.543334960938	-1214.642944335938	-396.7150878906251	1243.81298828125	-1220.7236328125	-421.7562561035157	1227.664794921875	-1147.53955078125	-248.6574096679688	974.8068847656252	-1197.79638671875	-319.6014099121094	951.0313110351565	-1227.918823242188	-216.1517791748047	901.2981567382815	-1243.82666015625	-249.2885284423829	1567.5048828125	-730.5891113281251	-337.8384704589844	1372.66357421875	-620.2772827148439	-302.2696533203126	1341.4755859375	-626.5033569335939	-348.2987670898438	1304.156005859375	-612.3692626953126	-350.5515747070313	1235.979858398438	-604.9608764648439	-384.2020874023439	1217.076171875	-677.9641723632814	-190.4278564453125	985.574157714844	-641.8883056640626	-246.3156890869141	956.9892578125002	-596.2218627929689	-144.6453552246094	912.877380371094	-603.7755737304689	-274.5664367675782	1060.625	-1054.772338867188	-260.2252197265626	1095.902709960938	-767.4856567382814	-458.6470642089845	1182.984130859375	-912.6838378906252	-468.8069763183595	1152.75830078125	-939.937194824219	-470.103485107422	1153.013916015625	-884.2622070312502	-358.1996154785157	859.6152954101565	-1109.411254882813	-336.9009094238282	778.5452880859377	-1110.67529296875	-288.0102539062501	774.6191406250002	-1103.484130859375	-370.8804016113282	729.3939208984376	-1096.151611328125	-354.6270446777344	581.0779418945314	-1076.157836914063	-346.5888366699219	550.7932739257814	-945.2503051757815	-305.0032043457032	363.9646911621094	-1028.56982421875	-336.8746032714844	321.8818664550782	-1102.974975585938	-304.1210937500001	320.0924072265626	-1070.029174804688	-299.8299255371094	239.4907531738282	-1046.128173828125	-350.5492553710938	118.0397262573242	-1094.150024414063	-399.5165405273439	83.23563385009767	-1044.85546875	-189.9109954833985	55.99232864379884	-1027.734375	-183.3371124267578	58.11561203002931	-1070.105224609375	-316.5038146972657	127.1386795043946	-1011.776977539063	-387.2256164550782	770.657165527344	-720.8341674804689	-360.1832580566407	711.0097656250001	-718.3265380859376	-326.3996276855469	707.0840454101564	-721.1724853515626	-397.263397216797	639.7668457031251	-734.2882690429689	-401.5554504394532	568.5709838867189	-735.8964843750001	-371.0472717285157	551.4764404296876	-864.608825683594	-343.3255310058594	436.1162414550782	-750.5654907226564	-400.8941345214845	351.9923095703126	-718.1825561523439	-356.7093811035157	351.0623779296876	-736.6661987304689	-347.0410156250001	306.5738525390626	-775.1125488281252	-402.0747375488282	124.4840087890625	-735.2050170898439	-368.6832275390626	131.635971069336	-822.4097290039065	-457.4712829589845	100.2137298583985	-794.9627685546877	-238.6070861816407	61.25093460083009	-771.5589599609377	-244.9536743164063	62.18714523315431	-733.9032592773439	-267.3549804687501	45.5257911682129	-686.8114013671876	-180.2331237792969	1736.930297851563	-985.2205810546877	
3	0.01	-10.71102142333985	1707.174194335938	-906.6166992187502	-195.9201812744141	1733.876342773438	-840.8731689453127	-337.7844238281251	1645.355224609375	-918.9434204101565	-435.214813232422	1295.468139648438	-916.2514648437502	-207.0063629150391	1532.916381835938	-926.7705078125002	-285.0411987304688	1580.042846679688	-1117.580322265625	-379.2550964355469	1376.606689453125	-1208.371948242188	-342.4710998535157	1344.636474609375	-1209.049926757813	-392.7565002441407	1310.443603515625	-1214.702880859375	-396.4597473144532	1243.663452148438	-1220.757934570313	-421.5227661132814	1227.4931640625	-1147.595336914063	-248.0759887695313	974.8403930664065	-1197.640380859375	-319.0005493164063	951.0058593750002	-1227.8486328125	-215.6096649169922	901.3394775390627	-1243.655029296875	-249.5525054931641	1567.683715820313	-730.7024536132814	-337.8036193847657	1372.7060546875	-620.3733520507814	-302.1539306640626	1341.546875	-626.6456909179689	-348.1344299316407	1304.166625976563	-612.4655151367189	-350.2503051757813	1235.990600585938	-605.0753173828126	-383.8749694824219	1217.006225585938	-678.0538330078126	-189.3494262695313	986.0738525390627	-642.3925781250001	-245.4898834228516	956.8004150390627	-596.7771606445314	-143.2708435058594	913.470153808594	-604.2885742187501	-274.2115478515626	1060.65869140625	-1054.845581054688	-259.7583923339844	1095.921264648438	-767.5403442382814	-458.3623046875001	1182.825073242188	-912.7139282226565	-468.3764038085939	1152.61328125	-940.026794433594	-469.6720581054689	1152.8876953125	-884.3511352539065	-357.8167114257813	859.6577758789065	-1109.517333984375	-335.2689819335938	778.0540771484377	-1110.289916992188	-287.6532287597657	774.6350097656252	-1103.55126953125	-370.4793090820313	729.4038696289064	-1096.219970703125	-354.3856811523438	581.0998535156251	-1076.23583984375	-346.4128112792969	550.8358154296876	-945.3086547851565	-304.8482666015626	363.9393615722657	-1028.60595703125	-336.7349243164063	321.8757324218751	-1102.986206054688	-303.9558410644532	320.1109619140626	-1070.028076171875	-299.7511901855469	239.5126190185547	-1046.116088867188	-349.2854919433594	117.3940658569336	-1094.084716796875	-399.5196533203126	83.29431152343751	-1044.805541992188	-189.9200897216797	55.98963546752931	-1027.76708984375	-183.3095245361328	58.08148193359376	-1070.099365234375	-316.5233459472657	127.1414031982422	-1011.761657714844	-386.885467529297	770.662048339844	-720.9562988281251	-359.8597717285157	710.9935302734376	-718.4223632812501	-326.0890197753907	707.0645141601564	-721.2723388671876	-397.0310974121095	639.7999267578126	-734.3695068359376	-401.3409423828126	568.5760498046876	-735.9728393554689	-370.7680969238282	551.4361572265626	-864.6807250976565	-343.1701965332032	436.1108703613282	-750.5805053710939	-400.8123474121095	352.0322265625001	-718.2183227539064	-356.5762329101563	351.0745849609376	-736.6835327148439	-346.9109802246094	306.5574645996094	-775.1721801757815	-402.1369628906251	124.5118103027344	-735.2625122070314	-368.7585449218751	131.6412353515625	-822.4239501953127	-457.4971923828126	100.2201614379883	-794.9497070312502	-238.6070861816407	61.2509002685547	-771.5589599609377	-244.9410858154297	62.18013000488283	-733.8900146484376	-267.3587341308594	45.51934051513673	-686.8299560546876	-181.045150756836	1737.37646484375	-985.3997802734377	
4	0.015	-11.37886333465576	1708.046752929688	-906.7512817382815	-196.6904449462891	1734.2109375	-840.9289550781252	-338.1224365234376	1645.011108398438	-919.0061645507815	-435.0190734863282	1295.330932617188	-916.356140136719	-207.2044525146485	1533.230102539063	-926.856628417969	-285.3441467285157	1580.131103515625	-1117.701171875	-379.2546997070313	1376.503784179688	-1208.449951171875	-342.3044433593751	1344.60302734375	-1209.151977539063	-392.544891357422	1310.316040039063	-1214.744140625	-396.1895446777345	1243.557861328125	-1220.779541015625	-421.2778320312501	1227.410400390625	-1147.653198242188	-247.5770416259766	974.9121704101565	-1197.543334960938	-318.4160156250001	950.9997558593752	-1227.776733398438	-214.954330444336	901.3811035156252	-1243.531982421875	-249.7969970703126	1567.884155273438	-730.8450317382814	-337.7154235839844	1372.707153320313	-620.4765625000001	-301.9845886230469	1341.638427734375	-626.7772827148439	-347.9343261718751	1304.19384765625	-612.5891723632814	-349.8943481445313	1235.9560546875	-605.1969604492189	-383.5846557617188	1216.94970703125	-678.1203613281251	-188.2906188964844	986.551452636719	-642.9276733398439	-243.8562316894532	957.6584472656252	-597.1002197265626	-141.8730773925782	914.1129150390627	-604.7869262695314	-273.6959228515626	1060.789916992188	-1055.04638671875	-259.3448791503907	1095.957763671875	-767.5599365234376	-458.0526428222657	1182.708862304688	-912.7817382812502	-468.0132751464845	1152.47216796875	-940.0876464843752	-469.2678527832032	1152.747802734375	-884.4077758789065	-357.4003601074219	859.5830078125002	-1109.664428710938	-334.9074401855469	778.0590820312502	-1110.371215820313	-287.2559204101563	774.6257934570315	-1103.624267578125	-370.1111755371094	729.4839477539064	-1096.354370117188	-354.1254272460938	581.1230468750001	-1076.268676757813	-346.2061767578126	550.8368530273439	-945.3521118164065	-304.7496643066407	363.9760742187501	-1028.603881835938	-336.6292114257813	321.8611145019532	-1102.996459960938	-303.8371582031251	320.1110229492188	-1070.05078125	-299.6877136230469	239.4616851806641	-1046.113403320313	-350.5100097656251	118.0096588134766	-1094.129638671875	-399.5044555664064	83.2941360473633	-1044.7998046875	-189.9093780517578	55.97224807739259	-1027.7431640625	-183.3134460449219	58.13020706176759	-1070.092163085938	-316.5056457519532	127.1455078125	-1011.732788085938	-386.5780639648439	770.6770019531252	-721.0700073242189	-359.5702819824219	710.9827270507814	-718.4885864257814	-325.7644042968751	707.0549926757814	-721.3420410156251	-396.7723693847657	639.7916259765626	-734.4407348632814	-401.1418762207032	568.6107177734376	-736.0910034179689	-370.3954467773438	551.4114379882814	-864.7445068359377	-343.0243530273438	436.094207763672	-750.6472167968751	-400.7344055175782	352.0232849121094	-718.2916259765626	-356.4403991699219	351.0761413574219	-736.7095336914064	-346.8106994628907	306.5352478027344	-775.1929931640627	-402.1510009765626	124.5048828125	-735.2661132812501	-368.7786560058594	131.619384765625	-822.4447021484377	-457.447479248047	100.204833984375	-795.0070800781252	-238.5974273681641	61.24169158935548	-771.582458496094	-244.9381866455079	62.1791114807129	-733.9168090820314	-267.3575744628907	45.5353012084961	-686.8089599609376	-181.8703765869141	1737.795654296875	-985.4499511718752	
